<?xml version="1.0" encoding="utf-8"?>
<!-- Generator: Adobe Illustrator 15.0.2, SVG Export Plug-In . SVG Version: 6.00 Build 0)  -->
<!DOCTYPE svg PUBLIC "-//W3C//DTD SVG 1.1 Tiny//EN" "http://www.w3.org/Graphics/SVG/1.1/DTD/svg11-tiny.dtd">
<svg version="1.1" baseProfile="tiny" id="Camada_1"
	 xmlns="http://www.w3.org/2000/svg" xmlns:xlink="http://www.w3.org/1999/xlink" x="0px" y="0px" width="888px" height="34px"
	 viewBox="0 0 888 34" xml:space="preserve">
<g>
	<path fill-rule="evenodd" fill="#FFE7FF" d="M109.042,1c0-0.333,0-0.667,0-1c5.333,0,10.666,0,15.998,0c0,0.333,0,0.667,0,1
		C119.707,1,114.374,1,109.042,1z"/>
	<path fill-rule="evenodd" fill="#FFE7FF" d="M638.975,1c0-0.333,0-0.667,0-1c10.999,0,21.997,0,32.996,0c0,0.333,0,0.667,0,1
		C660.972,1,649.974,1,638.975,1z"/>
	<path fill-rule="evenodd" fill="#FFC8FE" d="M0.055,3c2.885-1.115,6.2-1.799,9.999-2c11.671-0.672,21.06,0.938,31.996,1
		C28.977,3.294,15.293,2.921,0.055,4C0.055,3.666,0.055,3.333,0.055,3z"/>
	<path fill-rule="evenodd" fill="#FFE7FF" d="M100.043,2c-5.679-0.653-13.98,1.315-17.998-1c5.999,0,11.999,0,17.998,0
		C100.043,1.333,100.043,1.667,100.043,2z"/>
	<path fill-rule="evenodd" fill="#FFC8FE" d="M100.043,2c0-0.333,0-0.667,0-1c3,0,6,0,8.999,0c5.333,0,10.666,0,15.998,0
		c0.667,0,1.333,0,2,0c0,0.333,0,0.667,0,1c-6.333,0-12.666,0-18.998,0C105.376,2,102.709,2,100.043,2z"/>
	<path fill-rule="evenodd" fill="#FFE7FF" d="M127.04,2c0-0.333,0-0.667,0-1c3.694,0.638,9.96-1.295,11.998,1
		c-2.666,0-5.333,0-7.999,0C129.706,2,128.373,2,127.04,2z"/>
	<path fill-rule="evenodd" fill="#FFC8FE" d="M203.03,1c1.758,0.575,5.875-1.208,5.999,1c-5.611,1.054-12.148,1.184-18.998,1
		C192.082,0.051,200.98,3.949,203.03,1z"/>
	<path fill-rule="evenodd" fill="#FFE7FF" d="M496.993,2c4.026-1.663,14.973-1.663,18.998,0C509.658,2,503.326,2,496.993,2z"/>
	<path fill-rule="evenodd" fill="#FFE7FF" d="M585.982,2c5.683-1.664,18.313-1.664,23.997,0C601.98,2,593.981,2,585.982,2z"/>
	<path fill-rule="evenodd" fill="#FFE7FF" d="M675.971,2c0-0.333,0-0.667,0-1c8.339,0.66,19.321-1.324,25.996,1
		c-8.332,0-16.664,0-24.997,0C676.637,2,676.304,2,675.971,2z"/>
	<path fill-rule="evenodd" fill="#FFE7FF" d="M707.967,2c4.026-1.663,14.973-1.663,18.998,0C720.632,2,714.3,2,707.967,2z"/>
	<path fill-rule="evenodd" fill="#FFE7FF" d="M834.951,2c1.725-1.658,10.274-1.658,11.999,0C842.95,2,838.951,2,834.951,2z"/>
	<path fill-rule="evenodd" fill="#FFC8FE" d="M141.038,3c-3.039-0.627-8.612,1.28-9.999-1c2.667,0,5.333,0,7.999,0
		c0.667,0,1.333,0,2,0C141.038,2.333,141.038,2.667,141.038,3z"/>
	<path fill-rule="evenodd" fill="#FFE7FF" d="M313.016,3c24.665-1.666,56.325-1.666,80.99,0C367.01,3,340.013,3,313.016,3z"/>
	<path fill-rule="evenodd" fill="#FFC8FE" d="M495.994,2c0.333,0,0.666,0,0.999,0c6.333,0,12.665,0,18.998,0c0.333,0,0.667,0,1,0
		c6.36,1.972,16.081,0.583,22.997,2c0.667,0,1.333,0,2,0c0,0.333,0,0.667,0,1c-28.33,0-56.66,0-84.989,0
		C468.778,2.781,484.627,4.631,495.994,2z"/>
	<path fill-rule="evenodd" fill="#FFC8FE" d="M676.97,2c8.333,0,16.665,0,24.997,0c2,0,4,0,5.999,0c6.333,0,12.665,0,18.998,0
		c0.667,0,1.333,0,2,0c0,0.333,0,0.667,0,1c-0.333,0-0.667,0-1,0c-11.332,0-22.664,0-33.996,0C688.621,2.348,680.657,4.313,676.97,2
		z"/>
	<path fill-rule="evenodd" fill="#FFE7FF" d="M728.965,3c0-0.333,0-0.667,0-1c11.669,0.663,25.991-1.328,35.995,1
		c-0.666,0-1.333,0-2,0C751.628,3,740.297,3,728.965,3z"/>
	<path fill-rule="evenodd" fill="#FFE7FF" d="M780.958,3c11.669-2.329,27.66-0.336,40.995-1c0,0.333,0,0.667,0,1
		c-0.333,0-0.667,0-1,0C807.621,3,794.29,3,780.958,3z"/>
	<path fill-rule="evenodd" fill="#FFC8FE" d="M821.953,3c0-0.333,0-0.667,0-1c4.333,0,8.665,0,12.998,0c4,0,7.999,0,11.999,0
		c0.666,0,1.333,0,1.999,0c6.343,2.324,16.991,0.341,24.997,1C858.888,4.721,837.03,4.59,821.953,3z"/>
	<path fill-rule="evenodd" fill="#FFE7FF" d="M848.949,2c8.666,0,17.331,0,25.997,0c0,0.333,0,0.667,0,1c-0.333,0-0.667,0-1,0
		C865.94,2.34,855.292,4.323,848.949,2z"/>
	<path fill-rule="evenodd" fill="#FFC8FE" d="M874.946,3c0-0.333,0-0.667,0-1c3.333,0,6.666,0,9.999,0c0,0.333,0,0.667,0,1
		C880.666,4.265,880,2.927,874.946,3z"/>
	<path fill-rule="evenodd" fill="#FFB2FE" d="M61.048,4c3.314-0.228,9.652-1.064,15.998-1C73.801,6.272,66.344,5.076,61.048,4z"/>
	<path fill-rule="evenodd" fill="#FFC8FE" d="M241.025,4c0-0.333,0-0.667,0-1c3.695,0.638,9.96-1.294,11.999,1
		C249.024,4,245.025,4,241.025,4z"/>
	<path fill-rule="evenodd" fill="#FFE7FF" d="M267.022,4c-0.61-0.057-1.184-0.149-1-1c11.665,0,23.331,0,34.996,0
		c0,0.333,0,0.667,0,1c-0.333,0-0.667,0-1,0C289.019,4,278.021,4,267.022,4z"/>
	<path fill-rule="evenodd" fill="#FFC8FE" d="M301.018,4c0-0.333,0-0.667,0-1c4,0,7.999,0,11.999,0c26.997,0,53.993,0,80.99,0
		c0.333,0,0.667,0,1,0c0,0.333,0,0.667,0,1c-27.33,0-54.66,0-81.99,0C309.017,4,305.017,4,301.018,4z"/>
	<path fill-rule="evenodd" fill="#FFE7FF" d="M395.006,4c0-0.333,0-0.667,0-1C411.339,3.664,430.332,1.669,445,4
		c-16.331,0-32.663,0-48.994,0C395.673,4,395.34,4,395.006,4z"/>
	<path fill-rule="evenodd" fill="#FFB3FE" d="M727.965,3c0.333,0,0.667,0,1,0c11.332,0,22.663,0,33.995,0c0,0.333,0,0.667,0,1
		C751.624,3.337,737.635,5.328,727.965,3z"/>
	<path fill-rule="evenodd" fill="#FFC8FE" d="M762.96,4c0-0.333,0-0.667,0-1c0.667,0,1.334,0,2,0c5.333,0,10.665,0,15.998,0
		c13.332,0,26.663,0,39.995,0c-0.431,2.236-4.928,0.405-6.999,1c-13.332,0-26.663,0-39.995,0c-3.333,0-6.666,0-9.999,0
		C763.627,4,763.294,4,762.96,4z"/>
	<path fill-rule="evenodd" fill="#FFC8FE" d="M267.022,4c10.999,0,21.997,0,32.996,0c0.168,2.168-3.546,0.453-5,1
		C286.014,4.339,274.363,6.325,267.022,4z"/>
	<path fill-rule="evenodd" fill="#FFC8FE" d="M396.006,5c0-0.333,0-0.667,0-1C412.337,4,428.669,4,445,4c0.667,0,1.333,0,2,0
		c0,0.333,0,0.667,0,1c-15.998,0-31.996,0-47.994,0C398.006,5,397.006,5,396.006,5z"/>
	<path fill-rule="evenodd" fill="#FFE7FF" d="M541.988,5c0-0.333,0-0.667,0-1c7.665,0,15.331,0,22.997,0c0,0.333,0,0.667,0,1
		C557.319,5,549.653,5,541.988,5z"/>
	<path fill-rule="evenodd" fill="#FFB2FE" d="M21.053,5c4.354,0.645,11.303-1.304,13.998,1C30.697,5.354,23.748,7.303,21.053,5z"/>
	<path fill-rule="evenodd" fill="#FFB2FE" d="M345.012,5c5.348,0.651,13.311-1.313,16.998,1C356.662,5.348,348.699,7.312,345.012,5z
		"/>
	<path fill-rule="evenodd" fill="#FFB2FE" d="M648.974,5.999c11.036-1.697,28.947-1.623,39.995,0
		C676.32,6.241,660.953,7.001,648.974,5.999z"/>
	<path fill-rule="evenodd" fill="#FFB2FE" d="M856.948,5c5.666,0,11.332,0,16.998,0C870.582,6.661,860.313,6.661,856.948,5z"/>
	<path fill-rule="evenodd" fill="#FFB2FE" d="M497.993,5.999c3.039,0.627,8.612-1.28,9.999,1
		C504.953,6.372,499.38,8.279,497.993,5.999z"/>
	<path fill-rule="evenodd" fill="#FFB2FE" d="M174.033,19.998c-6.452,0.818-10.956,1.07-16.998,0c3.897-2.102,11.498-0.502,16.998-1
		C174.033,19.332,174.033,19.664,174.033,19.998z"/>
	<path fill-rule="evenodd" fill="#FFB2FE" d="M395.006,18.998c4.259,0.074,6.993,1.672,11.999,1c-1.711,2.287-7.632,0.367-10.999,1
		c-0.667,0-1.333,0-2,0C394.003,19.994,394.816,19.809,395.006,18.998z"/>
	<path fill-rule="evenodd" fill="#FFB2FE" d="M419.003,18.998c0,0.666,0,1.332,0,2c-0.667,0-1.333,0-2,0
		c-2.071-0.596-6.568,1.236-6.999-1C414.122,20.783,415.135,18.463,419.003,18.998z"/>
	<path fill-rule="evenodd" fill="#FFC8FE" d="M494.994,19.998c-0.169-2.168,3.546-0.453,4.999-1c3,0,5.999,0,8.999,0
		c3.039,0.627,8.612-1.279,9.999,1c-1,0-2,0-3,0c-6.333,0-12.665,0-18.998,0C496.327,19.998,495.66,19.998,494.994,19.998z"/>
	<path fill-rule="evenodd" fill="#FFC8FE" d="M544.987,19.998c0-0.334,0-0.666,0-1c5.666,0,11.332,0,16.998,0c0,0.334,0,0.666,0,1
		C556.319,19.998,550.653,19.998,544.987,19.998z"/>
	<path fill-rule="evenodd" fill="#FFC8FE" d="M649.974,19.998c10.339-1.666,27.655-1.666,37.995,0
		C675.304,19.998,662.639,19.998,649.974,19.998z"/>
	<path fill-rule="evenodd" fill="#FFC8FE" d="M119.041,20.998c1.386-2.281,6.959-0.373,9.999-1c0,0.332,0,0.666,0,1
		C125.706,20.998,122.373,20.998,119.041,20.998z"/>
	<path fill-rule="evenodd" fill="#FFC8FE" d="M468.997,20.998c-0.61-0.057-1.184-0.15-1-1c3.366,0.633,9.287-1.289,10.999,1
		C475.663,20.998,472.33,20.998,468.997,20.998z"/>
	<path fill-rule="evenodd" fill="#FFE7FF" d="M482.995,20.998c2.038-2.295,8.304-0.363,11.999-1c0.666,0,1.333,0,1.999,0
		C494.298,22.301,487.349,20.354,482.995,20.998z"/>
	<path fill-rule="evenodd" fill="#FFE7FF" d="M515.991,19.998c1,0,2,0,3,0c4.685,0.646,11.973-1.309,14.998,1
		C528.309,20.344,520.009,22.313,515.991,19.998z"/>
	<path fill-rule="evenodd" fill="#FFC8FE" d="M586.982,20.998c1.078-1.656,8.921-1.656,9.999,0
		C593.648,20.998,590.315,20.998,586.982,20.998z"/>
	<path fill-rule="evenodd" fill="#FFC8FE" d="M636.975,20.998c2.039-2.295,8.304-0.363,11.999-1c0,0.332,0,0.666,0,1
		c-3,0-5.999,0-8.999,0C638.975,20.998,637.975,20.998,636.975,20.998z"/>
	<path fill-rule="evenodd" fill="#FFC8FE" d="M725.965,20.998c3.355-2.311,10.981-0.352,15.998-1c2.071,0.594,6.568-1.236,6.999,1
		c-6.666,0-13.332,0-19.997,0C727.965,20.998,726.965,20.998,725.965,20.998z"/>
	<path fill-rule="evenodd" fill="#FFB2FE" d="M25.052,21.998c0-0.334,0-0.668,0-1c3.039,0.627,8.612-1.281,9.999,1
		C31.718,21.998,28.385,21.998,25.052,21.998z"/>
	<path fill-rule="evenodd" fill="#FFE7FF" d="M50.049,21.998c0-0.334,0-0.668,0-1c8.333,0,16.665,0,24.997,0c0,0.332,0,0.666,0,1
		C66.714,21.998,58.382,21.998,50.049,21.998z"/>
	<path fill-rule="evenodd" fill="#FFC8FE" d="M75.046,21.998c0-0.334,0-0.668,0-1c16.167-0.045,26.722,0.373,41.995,0
		c0,0.332,0,0.666,0,1c-0.667,0-1.333,0-2,0c-3.695,0.637-9.96-1.295-11.999,1c-1.667,0-3.333,0-5,0
		c-5.345-2.32-14.989-0.344-21.997-1C75.713,21.998,75.379,21.998,75.046,21.998z"/>
	<path fill-rule="evenodd" fill="#FFE7FF" d="M217.028,21.998c7.345-1.666,21.652-1.666,28.997,0
		C236.359,21.998,226.694,21.998,217.028,21.998z"/>
	<path fill-rule="evenodd" fill="#FFC8FE" d="M350.011,21.998c0.186-1.48,2.417-0.918,4-1c2.333,0,4.667,0,7,0c0,0.332,0,0.666,0,1
		C357.344,21.998,353.678,21.998,350.011,21.998z"/>
	<path fill-rule="evenodd" fill="#FFC8FE" d="M378.008,21.998c3.356-2.311,10.982-0.352,15.998-1c0.667,0,1.333,0,2,0
		c0,0.332,0,0.666,0,1c-1.333,0-2.667,0-4,0c-1.667,0-3.333,0-5,0C384.008,21.998,381.008,21.998,378.008,21.998z"/>
	<path fill-rule="evenodd" fill="#FFC8FE" d="M417.003,21.998c0-0.334,0-0.668,0-1c0.667,0,1.333,0,2,0
		c3.039,0.627,8.612-1.281,9.999,1c-3.666,0-7.333,0-10.999,0C417.67,21.998,417.337,21.998,417.003,21.998z"/>
	<path fill-rule="evenodd" fill="#FFE7FF" d="M446,20.998c0.667,0,1.333,0,2,0c4.332,0,8.665,0,12.998,0
		C458.292,22.658,448.706,22.658,446,20.998z"/>
	<path fill-rule="evenodd" fill="#FFE7FF" d="M468.997,20.998c3.333,0,6.666,0,9.999,0c0.666,0,1.333,0,1.999,0
		C479.271,22.656,470.721,22.656,468.997,20.998z"/>
	<path fill-rule="evenodd" fill="#FFE7FF" d="M585.982,21.998c0-0.334,0-0.668,0-1c0.333,0,0.667,0,1,0c3.333,0,6.666,0,9.999,0
		c4.332,0,8.665,0,12.998,0c0,0.332,0,0.666,0,1C601.98,21.998,593.981,21.998,585.982,21.998z"/>
	<path fill-rule="evenodd" fill="#FFC8FE" d="M609.979,21.998c0-0.334,0-0.668,0-1c6.666,0,13.332,0,19.997,0c0,0.332,0,0.666,0,1
		c-0.666,0-1.333,0-1.999,0c-4.666,0-9.332,0-13.999,0C612.645,21.998,611.312,21.998,609.979,21.998z"/>
	<path fill-rule="evenodd" fill="#FFE7FF" d="M629.976,21.998c0-0.334,0-0.668,0-1c2.333,0,4.666,0,6.999,0c1,0,2,0,3,0
		C638.589,23.277,633.015,21.371,629.976,21.998z"/>
	<path fill-rule="evenodd" fill="#FFE7FF" d="M715.966,21.998c0-0.334,0-0.668,0-1c3.333,0,6.666,0,9.999,0c1,0,2,0,3,0
		C726.598,23.297,719.99,21.355,715.966,21.998z"/>
	<path fill-rule="evenodd" fill="#FFE7FF" d="M841.95,21.998c0-0.334,0-0.668,0-1c3.333,0,6.666,0,9.999,0c0,0.332,0,0.666,0,1
		C848.616,21.998,845.283,21.998,841.95,21.998z"/>
	<path fill-rule="evenodd" fill="#FFE7FF" d="M76.046,21.998c7.008,0.656,16.652-1.32,21.997,1
		C91.035,22.34,81.391,24.318,76.046,21.998z"/>
	<path fill-rule="evenodd" fill="#FFE7FF" d="M103.043,22.998c2.038-2.295,8.304-0.363,11.999-1
		C113.003,24.293,106.738,22.359,103.043,22.998z"/>
	<path fill-rule="evenodd" fill="#FFE7FF" d="M201.031,22.998c3.025-2.309,10.313-0.354,14.998-1
		C213.003,24.305,205.716,22.35,201.031,22.998z"/>
	<path fill-rule="evenodd" fill="#FFC8FE" d="M321.015,22.998c-1.758-0.576-5.875,1.207-6-1c9.999,0,19.998,0,29.997,0
		c-0.168,1.164-1.581,1.086-3,1C335.013,22.998,328.014,22.998,321.015,22.998z"/>
	<path fill-rule="evenodd" fill="#FFE7FF" d="M376.009,22.998c0.221-0.779,0.837-1.164,2-1c3,0,6,0,8.999,0
		C385.296,24.285,379.375,22.363,376.009,22.998z"/>
	<path fill-rule="evenodd" fill="#FFE7FF" d="M392.007,21.998c1.333,0,2.666,0,4,0c6.999,0,13.998,0,20.997,0c0.333,0,0.667,0,1,0
		C411.656,23.662,398.354,23.662,392.007,21.998z"/>
	<path fill-rule="evenodd" fill="#FFE7FF" d="M613.978,21.998c4.667,0,9.333,0,13.999,0
		C625.599,23.658,616.356,23.658,613.978,21.998z"/>
	<path fill-rule="evenodd" fill="#FFE7FF" d="M697.969,21.998c5.332,0,10.665,0,15.998,0
		C710.931,23.658,701.004,23.658,697.969,21.998z"/>
	<path fill-rule="evenodd" fill="#FFE7FF" d="M823.953,22.998c3.687-2.313,11.649-0.35,16.997-1
		C837.263,24.311,829.301,22.346,823.953,22.998z"/>
	<path fill-rule="evenodd" fill="#FFE7FF" d="M21.053,23.998c4.018-2.316,12.318-0.348,17.998-1c1,0,2,0,3,0
		C37.037,25.316,27.729,23.342,21.053,23.998z"/>
	<path fill-rule="evenodd" fill="#FFE7FF" d="M155.036,23.998c4.026-1.664,14.972-1.664,18.998,0
		C167.701,23.998,161.368,23.998,155.036,23.998z"/>
	<path fill-rule="evenodd" fill="#FFE7FF" d="M189.032,23.998c1.711-2.289,7.632-0.367,10.999-1
		C198.319,25.285,192.398,23.363,189.032,23.998z"/>
	<path fill-rule="evenodd" fill="#FFE7FF" d="M321.015,22.998c6.999,0,13.998,0,20.997,0
		C337.325,24.66,325.703,24.66,321.015,22.998z"/>
	<path fill-rule="evenodd" fill="#FFE7FF" d="M788.957,23.998c0-0.334,0-0.668,0-1c11.332,0,22.664,0,33.996,0
		C813.615,25.324,799.96,23.334,788.957,23.998z"/>
	<path fill-rule="evenodd" fill="#FFE7FF" d="M10.054,1c0-0.333,0-0.667,0-1c7,0,13.999,0,20.998,0
		c5.761,2.571,17.062-0.397,22.997,2c-2.108,2.042-7.376-1.24-11.999,0C31.114,1.938,21.725,0.328,10.054,1z"/>
	<path fill-rule="evenodd" fill="#FFE7FF" d="M178.033,2c9.301,0.635,15.6-1.731,24.997-1c-2.05,2.949-10.948-0.949-12.999,2
		c-4,0-7.999,0-11.999,0C178.033,2.667,178.033,2.333,178.033,2z"/>
	<path fill-rule="evenodd" fill="#FFE7FF" d="M141.038,2c11.318,1.311,22.27-3.049,31.996,0c-2,0-4,0-6,0
		c-8.713-0.38-14.887,1.777-23.997,1c-0.667,0-1.333,0-2,0C141.038,2.667,141.038,2.333,141.038,2z"/>
	<path fill-rule="evenodd" fill="#FFE7FF" d="M610.979,2c10.104,0.773,17.333-1.331,26.996-1C630.601,2.302,618.766,4.44,610.979,2z
		"/>
	<path fill-rule="evenodd" fill="#FFE7FF" d="M565.985,4c5.45-1.548,12.354-1.644,18.997-2C579.768,3.785,573.098,4.114,565.985,4z"
		/>
	<path fill-rule="evenodd" fill="#FFE7FF" d="M516.991,2c8.191,0.141,17.416-0.751,22.997,2C533.072,2.583,523.351,3.972,516.991,2z
		"/>
	<path fill-rule="evenodd" fill="#FFE7FF" d="M447,4c16.383-0.615,32.155-1.84,48.994-2c-11.367,2.631-27.216,0.782-38.995,3
		c-3.333,0-6.666,0-9.999,0C447,4.666,447,4.333,447,4z"/>
	<path fill-rule="evenodd" fill="#FFE7FF" d="M241.025,4c-4.104,0.105-8.163,0.164-9.999-2c3.385,0.281,5.742,1.591,9.999,1
		C241.025,3.333,241.025,3.666,241.025,4z"/>
	<path fill-rule="evenodd" fill="#FFC8FE" d="M584.982,2c0.333,0,0.667,0,1,0c7.999,0,15.998,0,23.997,0c0.333,0,0.667,0,1,0
		c7.787,2.44,19.622,0.302,26.996-1c0.334,0,0.667,0,1,0c10.999,0,21.997,0,32.996,0c1.333,0,2.666,0,4,0c0,0.333,0,0.667,0,1
		c-39.329,0.883-73.623,0.964-110.986,3c0-0.333,0-0.667,0-1c0.333,0,0.666,0,1,0C573.098,4.114,579.768,3.785,584.982,2z"/>
	<path fill-rule="evenodd" fill="#FFB3FE" d="M108.042,2c-1.582,3.561-22.826-0.245-30.996,1C70.7,2.936,64.362,3.772,61.048,4
		c-9.525,1.628-17.464,1.13-25.997,2c-2.695-2.304-9.644-0.354-13.998-1c-7,0-13.999,0-20.998,0c0-0.333,0-0.667,0-1
		C15.293,2.921,28.977,3.294,42.05,2c4.623-1.24,9.891,2.042,11.999,0c11.217-0.618,17.338-0.146,27.997-1
		c4.018,2.314,12.318,0.347,17.998,1C102.709,2,105.376,2,108.042,2z"/>
	<path fill-rule="evenodd" fill="#FFB2FE" d="M629.976,6.999c3.666-0.583,4.037-0.486,8.999-1
		C637.334,7.09,631.827,9.426,629.976,6.999z"/>
	<path fill-rule="evenodd" fill="#FFB2FE" d="M634.976,17.998c13.485-1.482,41.944-4.254,57.992,0
		c-9.565,0.443-24.219-2.231-38.995-1C648.055,17.49,634.466,21.725,634.976,17.998z"/>
	<path fill-rule="evenodd" fill="#FFB2FE" d="M604.98,17.998c2.435,0.258,15.014-1.037,18.997,1
		C617.84,18.469,609.503,20.141,604.98,17.998z"/>
	<path fill-rule="evenodd" fill="#FFB2FE" d="M324.015,20.998c11.892-4.375,33.258-1.398,46.994-1c0,0.332,0,0.666,0,1
		c-3.333,0-6.666,0-9.999,0c-2.333,0-4.666,0-7,0C346.281,19.279,331.763,19.404,324.015,20.998z"/>
	<path fill-rule="evenodd" fill="#FFB2FE" d="M200.031,18.998c3.328-1.039,11.857-2.096,14.998,0
		C209.926,18.262,202.17,20.092,200.031,18.998z"/>
	<path fill-rule="evenodd" fill="#FFC8FE" d="M143.037,3c9.11,0.777,15.284-1.38,23.997-1c0.184,0.851-0.39,0.943-1,1
		c-7.532-0.532-12.229,1.77-19.998,1C144.618,4.085,143.206,4.165,143.037,3z"/>
	<path fill-rule="evenodd" fill="#FFC8FE" d="M585.982,21.998c-6.614-1.053-17.605,2.273-20.997-2
		c5.158,2.174,14.215,0.449,20.997,1C585.982,21.33,585.982,21.664,585.982,21.998z"/>
	<path fill-rule="evenodd" fill="#FFB3FE" d="M623.977,18.998c2.146-1.854,7.324-0.676,10.999-1c-0.511,3.727,13.079-0.508,18.997-1
		c14.776-1.231,29.43,1.443,38.995,1c14.799,4.107,33.951-0.23,48.994,2c-5.017,0.648-12.643-1.311-15.998,1
		c-3.333,0-6.666,0-9.999,0c-9.718,0.385-18.356-0.309-26.996-1c-0.333,0-0.667,0-1,0c-10.34-1.666-27.656-1.666-37.995,0
		c-0.333,0-0.667,0-1,0c-3.695,0.637-9.96-1.295-11.999,1c-2.333,0-4.666,0-6.999,0c-6.665,0-13.331,0-19.997,0
		c-4.333,0-8.666,0-12.998,0c-1.078-1.656-8.921-1.656-9.999,0c-0.333,0-0.667,0-1,0c-6.782-0.551-15.839,1.174-20.997-1
		c-1,0-2,0-3,0c0-0.334,0-0.666,0-1c13.723-0.326,27.538-2.314,42.995-1C609.503,20.141,617.84,18.469,623.977,18.998z"/>
	<path fill-rule="evenodd" fill="#FFC8FE" d="M136.038,20.998c49.366,2.855,97.058-1.846,147.981,0
		c-0.444,2.889-7.554-0.889-7.999,2c-0.333,0-0.667,0-1,0c-9.844,0.178-19.393,0.061-27.997-1c-0.333,0-0.667,0-1,0
		c-7.344-1.666-21.652-1.666-28.997,0c-0.333,0-0.667,0-1,0c-4.686,0.646-11.973-1.309-14.998,1c-0.333,0-0.667,0-1,0
		c-3.366,0.633-9.288-1.289-10.999,1c-5,0-9.999,0-14.999,0c-4.025-1.664-14.972-1.664-18.998,0c-4.333,0-8.666,0-12.998,0
		c-2.745-2.256-9.254-0.746-11.999-3C132.039,20.998,134.039,20.998,136.038,20.998z"/>
	<path fill-rule="evenodd" fill="#FFC8FE" d="M695.969,21.998c-0.136-2.865-6.863,0.863-6.999-2c8.64,0.691,17.278,1.385,26.996,1
		c0,0.332,0,0.666,0,1c-0.666,0-1.333,0-1.999,0c-5.333,0-10.666,0-15.998,0C697.302,21.998,696.635,21.998,695.969,21.998z"/>
	<path fill-rule="evenodd" fill="#FFB3FE" d="M50.049,20.998c24.263-1.736,53.989-3.336,78.99-1c-3.039,0.627-8.612-1.281-9.999,1
		c-0.667,0-1.333,0-2,0c-15.272,0.373-25.827-0.045-41.995,0C66.714,20.998,58.382,20.998,50.049,20.998z"/>
	<path fill-rule="evenodd" fill="#FFC8FE" d="M436.001,21.998c-0.164-2.832,6.164,0.83,6-2c1.757,0.574,5.875-1.209,6,1
		c-0.667,0-1.333,0-2,0C442.002,20.666,440.449,22.779,436.001,21.998z"/>
	<path fill-rule="evenodd" fill="#FFC8FE" d="M759.961,21.998c-2.391-0.609-7.255,1.254-7.999-1c2.333,0,4.666,0,6.999,0
		c5.819,0.512,11.187,1.479,17.998,1c0.333,0,0.666,0,0.999,0c1.712,2.287,7.633,0.365,10.999,1c0,0.332,0,0.666,0,1
		c-3.666,0-7.332,0-10.999,0C773.426,21.863,764.918,23.705,759.961,21.998z"/>
	<path fill-rule="evenodd" fill="#FFB3FE" d="M0.055,18.998c7.708,1.291,15.886,2.111,24.997,2c0,0.332,0,0.666,0,1
		c-4.573,0.426-8.478,1.52-13.999,1c-3.674-0.326-8.852,0.852-10.999-1C0.055,20.998,0.055,19.998,0.055,18.998z"/>
	<path fill-rule="evenodd" fill="#FFE7FF" d="M293.019,20.998c0.31-1.357,2.503-0.83,4-1c1.078,2.922,8.92-0.922,9.999,2
		C301.497,22.518,297.591,21.424,293.019,20.998z"/>
	<path fill-rule="evenodd" fill="#FFC8FE" d="M307.017,21.998c-1.078-2.922-8.92,0.922-9.999-2c3,0,5.999,0,8.999,0
		c0.333,0,0.667,0,1,0c0.136,2.863,6.864-0.865,7,2C311.683,21.998,309.35,21.998,307.017,21.998z"/>
	<path fill-rule="evenodd" fill="#FFB3FE" d="M314.016,21.998c-0.136-2.865-6.864,0.863-7-2c6.705-0.705,10.971,1.027,16.998,1
		c7.749-1.594,22.267-1.719,29.996,0c-1.583,0.082-3.813-0.48-4,1c-1.667,0-3.333,0-4.999,0c-9.999,0-19.998,0-29.997,0
		C314.683,21.998,314.349,21.998,314.016,21.998z"/>
	<path fill-rule="evenodd" fill="#FFE7FF" d="M648.974,20.998c0-0.334,0-0.668,0-1c0.333,0,0.667,0,1,0c12.665,0,25.33,0,37.995,0
		c0.333,0,0.667,0,1,0c0.136,2.863,6.863-0.865,6.999,2C681.587,20.381,664.804,21.166,648.974,20.998z"/>
	<path fill-rule="evenodd" fill="#FFE7FF" d="M759.961,21.998c4.957,1.707,13.465-0.135,17.997,2
		C771.529,23.76,763.677,24.945,759.961,21.998z"/>
	<path fill-rule="evenodd" fill="#FFE7FF" d="M863.947,22.998c5.006,0.672,7.74-0.928,11.999-1c-0.716,2.715,4.715-0.717,3.999,2
		C874.528,21.699,868.898,25.762,863.947,22.998z"/>
	<path fill-rule="evenodd" fill="#FFE7FF" d="M117.041,21.998c0-0.334,0-0.668,0-1c0.667,0,1.333,0,2,0c3.333,0,6.666,0,9.999,0
		c0.333,0,0.667,0,1,0c2.745,2.254,9.253,0.744,11.999,3C133.27,23.766,126.989,21.049,117.041,21.998z"/>
	<path fill-rule="evenodd" fill="#FFE7FF" d="M247.025,21.998c8.604,1.061,18.152,1.178,27.997,1
		C267.411,24.928,253.459,24.572,247.025,21.998z"/>
	<path fill-rule="evenodd" fill="#FFE7FF" d="M276.021,22.998c0.445-2.889,7.555,0.889,7.999-2c2.333,0,4.666,0,7,0
		C286.971,22.615,281.73,23.041,276.021,22.998z"/>
	<path fill-rule="evenodd" fill="#FFE7FF" d="M361.01,21.998c0-0.334,0-0.668,0-1c3.333,0,6.666,0,9.999,0
		c0.89,0.443,1.789,0.877,2,2C370.593,21.082,364.974,22.367,361.01,21.998z"/>
	<path fill-rule="evenodd" fill="#FFB2FE" d="M776.959,19.998c1.999,0,3.999,0,5.999,0c-0.147,2.186-2.52,2.146-5,2
		c-0.333,0-0.666,0-0.999,0C776.959,21.33,776.959,20.664,776.959,19.998z"/>
	<path fill-rule="evenodd" fill="#FFB2FE" d="M793.956,21.998c-4.672-0.5-11.839,0.965-8.998-2
		C787.725,20.896,794.344,17.943,793.956,21.998z"/>
	<path fill-rule="evenodd" fill="#FFC8FE" d="M11.054,22.998c5.521,0.52,9.426-0.574,13.999-1c3.333,0,6.666,0,9.999,0
		c1.583,0.082,3.814-0.48,4,1c-5.68,0.652-13.98-1.316-17.998,1C18.014,23.371,12.44,25.277,11.054,22.998z"/>
	<path fill-rule="evenodd" fill="#FFB3FE" d="M793.956,21.998c14.889-0.342,30.48-0.955,47.994-1c0,0.332,0,0.666,0,1
		c-0.333,0-0.666,0-1,0c-5.348,0.65-13.311-1.313-16.997,1c-0.334,0-0.667,0-1,0c-11.332,0-22.664,0-33.996,0
		c-3.366-0.635-9.287,1.287-10.999-1c2.48,0.146,4.853,0.186,5-2c0.666,0,1.333,0,2,0C782.117,22.963,789.284,21.498,793.956,21.998
		z"/>
	<path fill-rule="evenodd" fill="#FFB3FE" d="M874.946,3c5.054-0.073,5.72,1.265,9.999,0c1,0,1.999,0,2.999,0c0,0.667,0,1.333,0,2
		c-5.627,1.214-10.113-2.645-13.998,0c-5.666,0-11.332,0-16.998,0c-16.098-0.806-30.719,2.104-42.994-1
		c2.071-0.595,6.568,1.236,6.999-1c0.333,0,0.667,0,1,0c15.077,1.59,36.936,1.722,51.993,0C874.279,3,874.613,3,874.946,3z"/>
	<path fill-rule="evenodd" fill="#FFB3FE" d="M166.035,3c-2.501,3.85-15.87,2.104-19.998,1C153.806,4.77,158.503,2.467,166.035,3z"
		/>
	<path fill-rule="evenodd" fill="#FFB3FE" d="M763.96,4c3.333,0,6.666,0,9.999,0C772.881,5.654,765.038,5.654,763.96,4z"/>
	<path fill-rule="evenodd" fill="#FFB3FE" d="M267.022,4c7.34,2.325,18.992,0.339,27.996,1c-36.574,5.282-68.179-0.37-116.985-2
		c4,0,7.999,0,11.999,0c6.849,0.184,13.386,0.054,18.998-1c7.333,0,14.665,0,21.998,0c1.836,2.164,5.894,2.105,9.999,2
		c4,0,7.999,0,11.999,0c5.428,0.762,8.099-1.234,12.999-1C265.838,3.85,266.412,3.943,267.022,4z"/>
	<path fill-rule="evenodd" fill="#FFB3FE" d="M419.003,18.998c7.341,0.658,17.319-1.322,22.997,1c0.165,2.83-6.164-0.832-6,2
		c-2.333,0-4.666,0-6.999,0c-1.386-2.281-6.959-0.373-9.999-1C419.003,20.33,419.003,19.664,419.003,18.998z"/>
	<path fill-rule="evenodd" fill="#FFB2FE" d="M129.039,20.998c0-0.334,0-0.668,0-1c5.349,1.311,11.066-2.215,13.998,0
		c-3.156-0.49-3.531,1.801-6.999,1c-2,0-4,0-5.999,0C129.706,20.998,129.373,20.998,129.039,20.998z"/>
	<path fill-rule="evenodd" fill="#FFB3FE" d="M407.005,19.998c1,0,2,0,3,0c0.431,2.236,4.928,0.404,6.999,1c0,0.332,0,0.666,0,1
		c-6.999,0-13.998,0-20.997,0c0-0.334,0-0.668,0-1C399.372,20.365,405.293,22.285,407.005,19.998z"/>
	<path fill-rule="evenodd" fill="#FFB1FE" d="M50.049,21.998c-3.437-0.438-5.604,0.395-7.999,1c-1,0-2,0-3,0
		c-0.186-1.48-2.417-0.918-4-1c-1.386-2.281-6.959-0.373-9.999-1c-9.111,0.111-17.289-0.709-24.997-2c0-4.667,0-9.333,0-13.999
		c6.999,0,13.998,0,20.998,0c2.695,2.304,9.644,0.355,13.998,1c8.533-0.87,16.471-0.371,25.997-2c5.296,1.077,12.753,2.272,15.998-1
		c8.17-1.245,29.414,2.561,30.996-1c6.333,0,12.665,0,18.998,0c1.333,0,2.666,0,3.999,0c1.387,2.28,6.96,0.373,9.999,1
		c0.667,0,1.333,0,2,0c0.168,1.165,1.581,1.086,3,1c4.128,1.104,17.496,2.85,19.998-1c0.61-0.057,1.184-0.149,1-1c2,0,4,0,6,0
		c1.667,0,3.333,0,4.999,0c0,0.333,0,0.667,0,1c48.807,1.63,80.412,7.282,116.985,2c1.453-0.547,5.168,1.168,5-1
		c0.333,0,0.667,0,1,0c4,0,7.999,0,11.999,0c8.672,2.327,21.659,0.338,31.996,1c3.687,2.313,11.65,0.348,16.998,1
		c11.648-0.017,23.713,0.382,33.996-1c1,0,2,0,3,0c29.7,2.979,68.799,0.052,98.987,1c1.387,2.28,6.96,0.373,9.999,1
		c38.745-2.474,86.121-0.347,121.984,0c1.851,2.427,7.357,0.091,8.999-1c2.036,2.989,6.112,0.583,9.999,0
		c11.979,1.002,27.346,0.242,39.995,0c1.495-1.17,4.09-1.243,4.999-3c11.332,0,22.664,0,33.996,0c9.671,2.328,23.659,0.337,34.995,1
		c0.334,0,0.667,0,1,0c1.078,1.655,8.921,1.655,9.999,0c13.332,0,26.663,0,39.995,0c12.275,3.104,26.896,0.194,42.994,1
		c3.365,1.662,13.634,1.662,16.998,0c3.885-2.645,8.371,1.214,13.998,0c0,5.666,0,11.332,0,16.999c-3.999,0-7.999,0-11.998,0
		c-6.01-2.322-16.323-0.342-23.997-1c-3.333,0-6.666,0-9.999,0c-17.514,0.045-33.105,0.658-47.994,1c0.388-4.055-6.23-1.102-8.998-2
		c-0.667,0-1.334,0-2,0c-2,0-4,0-5.999,0c-3.268-1.844-14.304-2.357-17.998,1c-2.333,0-4.666,0-6.999,0c-1,0-2,0-3,0
		c-0.431-2.236-4.928-0.406-6.999-1c-15.043-2.23-34.195,2.107-48.994-2c-16.048-4.254-44.507-1.482-57.992,0
		c-3.675,0.324-8.853-0.854-10.999,1c-3.983-2.037-16.563-0.742-18.997-1c-15.457-1.314-29.272,0.674-42.995,1
		c-5.666,0-11.332,0-16.998,0c-8.59-1.311-21.865-4.069-30.996-3c-2.045,0.24-4.679-0.297-4.999,3c-3,0-5.999,0-8.999,0
		c-11.672-1.334-31.853-2.528-41.995,1c2.333,0,4.666,0,6.999,0c-0.309,1.357-2.503,0.83-3.999,1c-4.333,0-8.666,0-12.998,0
		c-0.125-2.209-4.242-0.426-6-1c-5.678-2.322-15.656-0.342-22.997-1c-3.868-0.535-4.881,1.785-8.999,1c-1,0-2,0-3,0
		c-5.005,0.672-7.74-0.926-11.999-1c-8.264-0.221-15.625-2.172-23.997,1c-13.736-0.398-35.102-3.375-46.994,1
		c-6.027,0.027-10.293-1.705-16.998-1c-0.333,0-0.667,0-1,0c-29.899-2.123-60.484-1.74-90.989-1c-3.141-2.096-11.67-1.039-14.998,0
		c-11.157,0.018-15.012,1.154-25.997,1c0-0.334,0-0.666,0-1c-5.5,0.498-13.101-1.102-16.998,1c-3.223-1.373-7.018,0.57-13.999,0
		c-2.932-2.215-8.649,1.311-13.998,0c-25.001-2.336-54.728-0.736-78.99,1C50.049,21.33,50.049,21.664,50.049,21.998z"/>
	<path fill-rule="evenodd" fill="#FFB3FE" d="M851.949,20.998c7.674,0.658,17.987-1.322,23.997,1c-4.259,0.072-6.993,1.672-11.999,1
		c-2.416-1.916-8.034-0.631-11.998-1C851.949,21.664,851.949,21.33,851.949,20.998z"/>
	<path fill-rule="evenodd" fill="#FFB3FE" d="M313.016,4c27.33,0,54.66,0,81.99,0c0.333,0,0.667,0,1,0c0,0.333,0,0.667,0,1
		c-10.283,1.382-22.348,0.982-33.996,1c-3.687-2.313-11.65-0.348-16.998-1C334.676,4.337,321.688,6.327,313.016,4z"/>
	<path fill-rule="evenodd" fill="#FFB3FE" d="M399.006,5C415.004,5,431.002,5,447,5c3.333,0,6.666,0,9.999,0
		c28.329,0,56.659,0,84.989,0c7.665,0,15.331,0,22.997,0c37.363-2.036,71.657-2.117,110.986-3c0.333,0,0.666,0,0.999,0
		c3.687,2.313,11.65,0.349,16.998,1c-0.909,1.757-3.504,1.829-4.999,3c-11.048-1.623-28.959-1.697-39.995,0
		c-3.887,0.583-7.963,2.989-9.999,0c-4.962,0.514-5.333,0.417-8.999,1c-35.863-0.347-83.239-2.474-121.984,0
		c-1.387-2.28-6.96-0.373-9.999-1C467.804,5.051,428.705,7.978,399.006,5z"/>
	<path fill-rule="evenodd" fill="#FFB3FE" d="M508.992,18.998c0.32-3.297,2.954-2.76,4.999-3c9.131-1.068,22.406,1.69,30.996,3
		c0,0.334,0,0.666,0,1c-2.803,1.195-6.899,1.1-10.998,1c-3.025-2.309-10.313-0.354-14.998-1
		C517.604,17.719,512.031,19.625,508.992,18.998z"/>
	<path fill-rule="evenodd" fill="#FFB3FE" d="M215.029,18.998c30.504-0.74,61.09-1.123,90.989,1c-3,0-6,0-8.999,0
		c-1.496,0.17-3.69-0.357-4,1c-0.667,0-1.333,0-2,0c-2.333,0-4.667,0-7,0c-50.924-1.846-98.616,2.855-147.981,0
		c3.468,0.801,3.843-1.49,6.999-1c6.981,0.57,10.776-1.373,13.999,0c6.042,1.07,10.546,0.818,16.998,0
		c10.985,0.154,14.84-0.982,25.997-1C202.17,20.092,209.926,18.262,215.029,18.998z"/>
	<path fill-rule="evenodd" fill="#FFB3FE" d="M371.009,19.998c8.373-3.172,15.733-1.221,23.997-1c-0.19,0.811-1.003,0.996-1,2
		c-5.016,0.648-12.642-1.311-15.998,1c-1.163-0.164-1.779,0.221-2,1c-1,0-2,0-3,0c-0.211-1.123-1.109-1.557-2-2
		C371.009,20.664,371.009,20.33,371.009,19.998z"/>
	<path fill-rule="evenodd" fill="#FFB3FE" d="M464.997,19.998c-2.333,0-4.666,0-6.999,0c10.143-3.528,30.323-2.334,41.995-1
		c-1.453,0.547-5.168-1.168-4.999,1c-3.695,0.637-9.961-1.295-11.999,1c-0.666,0-1.333,0-2,0c-0.666,0-1.333,0-1.999,0
		c-1.712-2.289-7.633-0.367-10.999-1C466.997,19.998,465.997,19.998,464.997,19.998z"/>
	<path fill-rule="evenodd" fill="#FFB3FE" d="M758.961,20.998c3.694-3.357,14.73-2.844,17.998-1c0,0.666,0,1.332,0,2
		C770.147,22.477,764.78,21.51,758.961,20.998z"/>
	<path fill-rule="evenodd" fill="#FFC8FE" d="M875.946,21.998c3.999,0,7.999,0,11.998,0c0,0.666,0,1.332,0,2
		c-2.666,0-5.332,0-7.999,0C880.661,21.281,875.23,24.713,875.946,21.998z"/>
</g>
</svg>
