<?xml version="1.0" encoding="utf-8"?>
<!-- Generator: Adobe Illustrator 15.0.2, SVG Export Plug-In . SVG Version: 6.00 Build 0)  -->
<!DOCTYPE svg PUBLIC "-//W3C//DTD SVG 1.1 Tiny//EN" "http://www.w3.org/Graphics/SVG/1.1/DTD/svg11-tiny.dtd">
<svg version="1.1" baseProfile="tiny" id="Camada_1"
	 xmlns="http://www.w3.org/2000/svg" xmlns:xlink="http://www.w3.org/1999/xlink" x="0px" y="0px" width="888px" height="34px"
	 viewBox="0 0 888 34" xml:space="preserve">
<g>
	<path fill-rule="evenodd" fill="#FFFCD0" d="M112.041,2c0-0.333,0-0.667,0-1c3.667,0,7.333,0,10.999,0c0,0.333,0,0.667,0,1
		C119.374,2,115.708,2,112.041,2z"/>
	<path fill-rule="evenodd" fill="#FFFCD0" d="M648.974,2c0-0.333,0-0.667,0-1c7.666,0,15.331,0,22.997,0c0,0.333,0,0.667,0,1
		C664.305,2,656.64,2,648.974,2z"/>
	<path fill-rule="evenodd" fill="#FFFCD0" d="M0.055,2c3.666,0,7.333,0,10.999,0C8.999,4.278,2.42,2.031,0.055,4
		C0.055,3.333,0.055,2.666,0.055,2z"/>
	<path fill-rule="evenodd" fill="#FFFAA1" d="M11.054,2c0.667,0,1.333,0,2,0c13.228-0.563,23.57,1.76,36.995,1
		c0.61,0.057,1.184,0.149,1,1C33.373,3.655,18.159,5.772,0.055,4.999c0-0.333,0-0.666,0-0.999C2.42,2.031,8.999,4.278,11.054,2z"/>
	<path fill-rule="evenodd" fill="#FFFCD0" d="M102.043,3c-6.676-0.656-15.984,1.319-20.998-1c6.999,0,13.999,0,20.998,0
		C102.043,2.333,102.043,2.666,102.043,3z"/>
	<path fill-rule="evenodd" fill="#FFFAA1" d="M102.043,3c0-0.334,0-0.667,0-1c3.333,0,6.666,0,9.999,0c3.667,0,7.333,0,10.999,0
		c1.177,0.156,2.838-0.172,3,1c-6,0-11.999,0-17.998,0C106.042,3,104.042,3,102.043,3z"/>
	<path fill-rule="evenodd" fill="#FFFCD0" d="M208.03,2c3.039,0.627,8.612-1.28,9.999,1c-0.333,0-0.667,0-1,0
		c-2.666,0-5.333,0-7.999,0C208.419,2.943,207.845,2.851,208.03,2z"/>
	<path fill-rule="evenodd" fill="#FFFCD0" d="M589.982,3c4.025-1.663,14.972-1.663,18.997,0C602.647,3,596.314,3,589.982,3z"/>
	<path fill-rule="evenodd" fill="#FFFAA1" d="M638.975,2c3.333,0,6.666,0,9.999,0c7.666,0,15.331,0,22.997,0c0.667,0,1.333,0,2,0
		c0,0.333,0,0.666,0,1c-40.182,1.054-71.46,1.378-107.986,2.999c0-0.333,0-0.666,0-1c0.333,0,0.666,0,0.999,0
		c7.114,0.115,13.784-0.214,18.998-1.999c1.333,0,2.666,0,4,0c6.332,0,12.665,0,18.997,0c0.333,0,0.667,0,1,0
		C618.41,5.418,631.084,3.449,638.975,2z"/>
	<path fill-rule="evenodd" fill="#FFFCD0" d="M673.971,3c0-0.334,0-0.667,0-1c5.016,0.649,12.643-1.311,15.998,1
		c-4.333,0-8.666,0-12.999,0C675.97,3,674.971,3,673.971,3z"/>
	<path fill-rule="evenodd" fill="#FFFCD0" d="M708.967,3c3.035-1.661,12.963-1.661,15.998,0C719.633,3,714.3,3,708.967,3z"/>
	<path fill-rule="evenodd" fill="#FFFAA1" d="M141.038,4c-3.366-0.634-9.287,1.288-10.999-1c3.666,0,7.333,0,10.999,0
		C141.038,3.333,141.038,3.666,141.038,4z"/>
	<path fill-rule="evenodd" fill="#FFFAA1" d="M143.037,4c10.922,0.59,18.913-1.752,29.997-1c1,0,2,0,3,0c0,0.333,0,0.666,0,1
		c-3.333,0-6.666,0-9.999,0c-6.999,0-12.304,1.694-19.998,0.999C144.861,4.843,143.199,5.171,143.037,4z"/>
	<path fill-rule="evenodd" fill="#FFFAA1" d="M217.028,3c0.333,0,0.667,0,1,0c3,0,6,0,8.999,0
		C225.949,4.654,218.106,4.654,217.028,3z"/>
	<path fill-rule="evenodd" fill="#FFFCD0" d="M242.025,4c-2.055,2.311-8.634,0.692-10.999,0c0-0.334,0-0.667,0-1
		C234.533,3.492,237.535,4.49,242.025,4z"/>
	<path fill-rule="evenodd" fill="#FFFCD0" d="M373.009,4c4.356-1.663,15.641-1.663,19.998,0C386.341,4,379.675,4,373.009,4z"/>
	<path fill-rule="evenodd" fill="#FFFCD0" d="M480.995,4c4.682-2.318,13.654-0.345,19.998-1C496.312,5.317,487.339,3.344,480.995,4z
		"/>
	<path fill-rule="evenodd" fill="#FFFCD0" d="M511.992,3c6.676,0.656,15.983-1.319,20.997,1C526.312,3.343,517.005,5.319,511.992,3z
		"/>
	<path fill-rule="evenodd" fill="#FFFCD0" d="M585.982,3c-5.214,1.785-11.884,2.114-18.998,1.999
		C572.435,3.451,579.106,3.123,585.982,3z"/>
	<path fill-rule="evenodd" fill="#FFFAA1" d="M676.97,3c4.333,0,8.666,0,12.999,0c6.332,0,12.665,0,18.997,0
		c5.333,0,10.666,0,15.998,0c1.333,0,2.667,0,4,0c0,0.333,0,0.666,0,1c-11.666,0-23.331,0-34.996,0
		C688.621,3.349,680.657,5.313,676.97,3z"/>
	<path fill-rule="evenodd" fill="#FFFCD0" d="M728.965,4c0-0.334,0-0.667,0-1c11.336,0.662,25.324-1.328,34.995,1
		c-5.666,0-11.332,0-16.998,0C740.963,4,734.964,4,728.965,4z"/>
	<path fill-rule="evenodd" fill="#FFFCD0" d="M782.958,4c15-2.331,34.327-0.336,50.993-1c-1.711,2.288-7.632,0.366-10.998,1
		c-0.334,0-0.667,0-1,0C808.954,4,795.956,4,782.958,4z"/>
	<path fill-rule="evenodd" fill="#FFFAA1" d="M833.951,3c4.333,0,8.666,0,12.999,0c7.007,2.324,18.324,0.34,26.996,1
		c-2.217,4.115-11.608,1.056-16.998,1.999c-0.15-2.487-3.386-0.292-3.999,0C845.272,3.011,830.63,6.988,822.953,4
		C826.319,3.366,832.24,5.288,833.951,3z"/>
	<path fill-rule="evenodd" fill="#FFFCD0" d="M846.95,3c9.665,0,19.331,0,28.996,0c-0.221,0.779-0.837,1.162-2,1
		C865.274,3.34,853.957,5.324,846.95,3z"/>
	<path fill-rule="evenodd" fill="#FFFCD0" d="M262.023,4c-1.4,1.656-9.599,1.656-10.999,0C254.69,4,258.357,4,262.023,4z"/>
	<path fill-rule="evenodd" fill="#FFFCD0" d="M292.019,4.999c1.386-2.279,6.96-0.372,9.999-0.999c-0.221,0.778-0.837,1.162-2,0.999
		C297.352,4.999,294.685,4.999,292.019,4.999z"/>
	<path fill-rule="evenodd" fill="#FFFAA1" d="M310.017,4.999C328.438,2.608,356.223,4.747,373.009,4c6.666,0,13.332,0,19.998,0
		c0.333,0,0.666,0,1,0c0,0.333,0,0.666,0,0.999c-12.412-0.746-22.146,1.186-33.996,1c-3.666,0-7.333,0-10.999,0
		c-10.004-2.328-24.327-0.337-35.996-1C312.016,4.999,311.016,4.999,310.017,4.999z"/>
	<path fill-rule="evenodd" fill="#FFFCD0" d="M394.007,4.999c0-0.333,0-0.666,0-0.999c4.685,0.647,11.973-1.308,14.998,0.999
		c-4.666,0-9.333,0-13.999,0C394.673,4.999,394.34,4.999,394.007,4.999z"/>
	<path fill-rule="evenodd" fill="#FFFCD0" d="M413.004,4.999c8.343-1.664,23.654-1.664,31.996,0
		C434.335,4.999,423.669,4.999,413.004,4.999z"/>
	<path fill-rule="evenodd" fill="#FFFCD0" d="M773.959,4.999c-2.391-0.608-7.255,1.256-7.999-0.999c3.333,0,6.666,0,9.999,0
		c0,0.333,0,0.666,0,0.999C775.292,4.999,774.626,4.999,773.959,4.999z"/>
	<path fill-rule="evenodd" fill="#FFFAA1" d="M775.959,4.999c0-0.333,0-0.666,0-0.999c2.333,0,4.666,0,6.999,0
		c12.998,0,25.996,0,38.995,0c-0.745,2.255-5.608,0.391-7.999,0.999C801.289,4.999,788.624,4.999,775.959,4.999z"/>
	<path fill-rule="evenodd" fill="#FFFAA1" d="M267.022,4.999c8.332,0,16.665,0,24.997,0c2.667,0,5.333,0,7.999,0
		c0.168,2.169-3.546,0.453-5,1C286.014,5.339,274.363,7.324,267.022,4.999z"/>
	<path fill-rule="evenodd" fill="#FFFAA1" d="M395.006,5.999c0-0.333,0-0.666,0-1c4.666,0,9.333,0,13.999,0c1.333,0,2.666,0,3.999,0
		c10.665,0,21.331,0,31.996,0c0.333,0,0.667,0,1,0c0,0.334,0,0.667,0,1c-15.665,0-31.329,0-46.994,0
		C397.673,5.999,396.34,5.999,395.006,5.999z"/>
	<path fill-rule="evenodd" fill="#FFFCD0" d="M540.988,5.999c0-0.333,0-0.666,0-1c8.332,0,16.664,0,24.997,0c0,0.334,0,0.667,0,1
		C557.652,5.999,549.32,5.999,540.988,5.999z"/>
	<path fill-rule="evenodd" fill="#FFF886" d="M456.998,6.999c1.725-1.658,10.274-1.658,11.999,0
		C464.998,6.999,460.998,6.999,456.998,6.999z"/>
	<path fill-rule="evenodd" fill="#FFF886" d="M478.996,6.999c2.05-1.659,10.947-1.659,12.998,0
		C487.661,6.999,483.328,6.999,478.996,6.999z"/>
	<path fill-rule="evenodd" fill="#FFF885" d="M650.974,6.999c10.437-1.763,27.522-1.532,37.995,0
		c-11.675,0.987-26.784-0.461-37.995,1C650.974,7.666,650.974,7.333,650.974,6.999z"/>
	<path fill-rule="evenodd" fill="#FFF885" d="M664.972,16.998c3.333,0,6.666,0,9.999,0
		C673.893,18.654,666.051,18.654,664.972,16.998z"/>
	<path fill-rule="evenodd" fill="#FFF885" d="M675.97,16.998c3.367,0.633,9.288-1.287,10.999,1
		C683.603,17.365,677.682,19.287,675.97,16.998z"/>
	<path fill-rule="evenodd" fill="#FFFAA1" d="M485.995,20.998c2.695-2.305,9.644-0.355,13.998-1c3,0,5.999,0,8.999,0
		c7.008,0.658,16.652-1.32,21.997,1c-4.999,0-9.999,0-14.998,0c-6.666,0-13.332,0-19.997,0
		C492.661,20.998,489.328,20.998,485.995,20.998z"/>
	<path fill-rule="evenodd" fill="#FFFAA1" d="M543.987,20.998c0-0.334,0-0.666,0-1c6.333,0,12.665,0,18.998,0c0,0.334,0,0.666,0,1
		C556.652,20.998,550.32,20.998,543.987,20.998z"/>
	<path fill-rule="evenodd" fill="#FFFAA1" d="M649.974,20.998c10.672-1.666,28.322-1.666,38.995,0
		C675.97,20.998,662.972,20.998,649.974,20.998z"/>
	<path fill-rule="evenodd" fill="#FFFAA1" d="M298.018,21.998c-0.61-0.057-1.184-0.15-1-1c3,0,5.999,0,8.999,0c0.667,0,1.333,0,2,0
		c0,0.334,0,0.666,0,1C304.684,21.998,301.351,21.998,298.018,21.998z"/>
	<path fill-rule="evenodd" fill="#FFFAA1" d="M469.997,21.998c-0.61-0.057-1.184-0.15-1-1c4.333,0,8.665,0,12.998,0
		c0,0.334,0,0.666,0,1c-0.333,0-0.666,0-1,0C477.329,21.998,473.663,21.998,469.997,21.998z"/>
	<path fill-rule="evenodd" fill="#FFFCD0" d="M481.995,21.998c0-0.334,0-0.666,0-1c1.333,0,2.667,0,4,0c3.333,0,6.666,0,9.999,0
		C493.298,23.303,486.349,21.354,481.995,21.998z"/>
	<path fill-rule="evenodd" fill="#FFFCD0" d="M515.991,20.998c4.999,0,9.999,0,14.998,0c2.071,0.596,6.568-1.236,6.999,1
		C530.98,21.34,521.336,23.318,515.991,20.998z"/>
	<path fill-rule="evenodd" fill="#FFFAA1" d="M585.982,21.998c4.688-1.664,16.31-1.664,20.997,0
		C599.98,21.998,592.981,21.998,585.982,21.998z"/>
	<path fill-rule="evenodd" fill="#FFFAA1" d="M635.976,21.998c2.366-2.301,8.974-0.357,12.998-1c0,0.334,0,0.666,0,1
		c-3.333,0-6.666,0-9.999,0C637.975,21.998,636.976,21.998,635.976,21.998z"/>
	<path fill-rule="evenodd" fill="#FFFCD0" d="M648.974,21.998c0-0.334,0-0.666,0-1c0.333,0,0.667,0,1,0c12.998,0,25.996,0,38.995,0
		c0.609,0.057,1.184,0.15,1,1C676.304,21.998,662.639,21.998,648.974,21.998z"/>
	<path fill-rule="evenodd" fill="#FFFAA1" d="M724.965,21.998c0-0.334,0-0.666,0-1c0.333,0,0.667,0,1,0c5.333,0,10.665,0,15.998,0
		c2.391,0.609,7.255-1.256,7.999,1c-7.666,0-15.331,0-22.997,0C726.298,21.998,725.632,21.998,724.965,21.998z"/>
	<path fill-rule="evenodd" fill="#FFFCD0" d="M50.049,22.998c0-0.334,0-0.666,0-1c5.666,0,11.332,0,16.998,0
		C63.361,24.311,55.397,22.346,50.049,22.998z"/>
	<path fill-rule="evenodd" fill="#FFFCD0" d="M298.018,21.998c3.333,0,6.666,0,9.999,0c0.61,0.057,1.184,0.148,1,1
		C305.651,22.365,299.729,24.285,298.018,21.998z"/>
	<path fill-rule="evenodd" fill="#FFFAA1" d="M349.012,22.998c1.386-2.279,6.959-0.373,9.999-1c0,0.334,0,0.666,0,1
		C355.677,22.998,352.344,22.998,349.012,22.998z"/>
	<path fill-rule="evenodd" fill="#FFFCD0" d="M359.01,22.998c0-0.334,0-0.666,0-1c3.333,0,6.666,0,9.999,0
		C367.623,24.277,362.05,22.371,359.01,22.998z"/>
	<path fill-rule="evenodd" fill="#FFFAA1" d="M377.009,22.998c4.688-1.664,16.31-1.664,20.997,0c-1.666,0-3.333,0-4.999,0
		c-2.333,0-4.666,0-6.999,0C383.008,22.998,380.008,22.998,377.009,22.998z"/>
	<path fill-rule="evenodd" fill="#FFFCD0" d="M447,21.998c0.666,0,1.333,0,2,0c3.332,0,6.665,0,9.998,0
		C457.273,23.656,448.724,23.656,447,21.998z"/>
	<path fill-rule="evenodd" fill="#FFFCD0" d="M469.997,21.998c3.666,0,7.332,0,10.998,0
		C479.595,23.654,471.397,23.654,469.997,21.998z"/>
	<path fill-rule="evenodd" fill="#FFFAA1" d="M584.982,22.998c-5.68-0.652-13.979,1.314-17.998-1c6,0,11.999,0,17.998,0
		C584.982,22.332,584.982,22.664,584.982,22.998z"/>
	<path fill-rule="evenodd" fill="#FFFCD0" d="M584.982,22.998c0-0.334,0-0.666,0-1c0.333,0,0.667,0,1,0c6.999,0,13.998,0,20.997,0
		c1.333,0,2.667,0,4,0c0,0.334,0,0.666,0,1C602.313,22.998,593.648,22.998,584.982,22.998z"/>
	<path fill-rule="evenodd" fill="#FFFAA1" d="M610.979,22.998c0-0.334,0-0.666,0-1c5.999,0,11.998,0,17.997,0c0,0.334,0,0.666,0,1
		c-0.333,0-0.666,0-0.999,0c-4.333,0-8.666,0-12.999,0C613.645,22.998,612.312,22.998,610.979,22.998z"/>
	<path fill-rule="evenodd" fill="#FFFCD0" d="M628.976,22.998c0-0.334,0-0.666,0-1c2.334,0,4.667,0,7,0c1,0,1.999,0,2.999,0
		C637.59,24.277,632.016,22.371,628.976,22.998z"/>
	<path fill-rule="evenodd" fill="#FFFAA1" d="M698.969,22.998c-0.61-0.057-1.185-0.15-1-1c5.332,0,10.665,0,15.998,0
		c0,0.334,0,0.666,0,1c-0.334,0-0.667,0-1,0C708.301,22.998,703.635,22.998,698.969,22.998z"/>
	<path fill-rule="evenodd" fill="#FFFCD0" d="M713.967,22.998c0-0.334,0-0.666,0-1c3.666,0,7.332,0,10.998,0c0.667,0,1.333,0,2,0
		C724.598,24.297,717.991,22.355,713.967,22.998z"/>
	<path fill-rule="evenodd" fill="#FFFCD0" d="M77.046,22.998c7.009,0.656,16.652-1.32,21.998,1
		C92.034,23.34,82.391,25.318,77.046,22.998z"/>
	<path fill-rule="evenodd" fill="#FFFCD0" d="M101.043,23.998c2.695-2.305,9.644-0.355,13.999-1
		C112.345,25.301,105.397,23.354,101.043,23.998z"/>
	<path fill-rule="evenodd" fill="#FFFCD0" d="M199.031,23.998c3.355-2.311,10.982-0.352,15.998-1
		C211.673,25.309,204.047,23.348,199.031,23.998z"/>
	<path fill-rule="evenodd" fill="#FFFAA1" d="M343.012,22.998c-5.351,1.664-17.646,1.664-22.997,0
		C327.681,22.998,335.347,22.998,343.012,22.998z"/>
	<path fill-rule="evenodd" fill="#FFFCD0" d="M375.009,23.998c0.221-0.779,0.837-1.162,2-1c2.999,0,5.999,0,8.999,0
		C384.296,25.285,378.375,23.365,375.009,23.998z"/>
	<path fill-rule="evenodd" fill="#FFFCD0" d="M393.007,22.998c1.666,0,3.333,0,4.999,0c6.333,0,12.665,0,18.998,0
		C411.32,24.662,398.689,24.662,393.007,22.998z"/>
	<path fill-rule="evenodd" fill="#FFFCD0" d="M614.978,22.998c4.333,0,8.666,0,12.999,0
		C625.927,24.656,617.029,24.656,614.978,22.998z"/>
	<path fill-rule="evenodd" fill="#FFFCD0" d="M698.969,22.998c4.666,0,9.332,0,13.998,0
		C710.589,24.658,701.345,24.658,698.969,22.998z"/>
	<path fill-rule="evenodd" fill="#FFFCD0" d="M20.053,24.998c3.025-2.309,10.313-0.354,14.998-1
		C32.026,26.305,24.738,24.35,20.053,24.998z"/>
	<path fill-rule="evenodd" fill="#FFFCD0" d="M261.023,23.998c4,0,7.999,0,11.999,0C271.297,25.656,262.747,25.656,261.023,23.998z"
		/>
	<path fill-rule="evenodd" fill="#FFFCD0" d="M765.96,23.998c4.024,0.641,10.632-1.301,12.998,1
		C774.933,24.355,768.326,26.297,765.96,23.998z"/>
	<path fill-rule="evenodd" fill="#FFFCD0" d="M787.957,24.998c0-0.334,0-0.668,0-1c7.999,0,15.998,0,23.997,0c3,0,5.999,0,8.999,0
		C811.948,26.324,798.627,24.336,787.957,24.998z"/>
	<path fill-rule="evenodd" fill="#FFFCD0" d="M13.054,2c0-0.333,0-0.667,0-1c5.666,0,11.332,0,16.998,0
		c4.357,2.976,15.641-0.976,19.998,2C36.624,3.76,26.281,1.438,13.054,2z"/>
	<path fill-rule="evenodd" fill="#FFFCD0" d="M609.979,3c10.742,0.743,18.827-1.171,28.996-1C631.084,3.449,618.41,5.418,609.979,3z
		"/>
	<path fill-rule="evenodd" fill="#FFFCD0" d="M446,4.999C457.457,4.792,467.715,3.384,479.996,4
		C470.14,5.81,457.573,4.907,447,5.999c-0.334,0-0.667,0-1,0C446,5.666,446,5.333,446,4.999z"/>
	<path fill-rule="evenodd" fill="#FFFCD0" d="M176.033,3c10.641,0.643,18.272-1.726,28.997-1c-4.811,2.188-13.799,0.199-18.998,2
		c-3.333,0-6.666,0-9.999,0C176.033,3.666,176.033,3.333,176.033,3z"/>
	<path fill-rule="evenodd" fill="#FFFCD0" d="M141.038,3c11.318,1.311,22.27-3.049,31.996,0c-11.083-0.752-19.074,1.59-29.997,1
		c-0.667,0-1.333,0-2,0C141.038,3.666,141.038,3.333,141.038,3z"/>
	<path fill-rule="evenodd" fill="#FFFAA1" d="M205.03,2c1,0,2,0,3,0c-0.184,0.851,0.39,0.943,1,1
		c-4.025,2.974-14.972-0.974-18.998,1.999c-1.583-0.083-3.813,0.481-4-0.999C191.231,2.199,200.219,4.188,205.03,2z"/>
	<path fill-rule="evenodd" fill="#FFF885" d="M62.048,4.999C68.453,4.325,72.754,4.939,77.046,4
		C74.047,7.173,66.819,6.179,62.048,4.999z"/>
	<path fill-rule="evenodd" fill="#FFF885" d="M648.974,17.998c2.803-1.196,6.899-1.1,10.998-1
		C657.942,18.35,649.857,18.814,648.974,17.998z"/>
	<path fill-rule="evenodd" fill="#FFFAA1" d="M500.993,3c4.285,1.87,7.211,0.476,10.999,0c5.013,2.319,14.32,0.343,20.997,1
		c1.453,1.546,5.118,0.88,7.999,0.999c0,0.334,0,0.667,0,1c-14.334,0.664-31.326-1.329-43.995,1c-1.666,0-3.333,0-4.999,0
		c-2.051-1.659-10.948-1.659-12.998,0c-3.333,0-6.666,0-9.999,0c-1.725-1.658-10.274-1.658-11.999,0c-3.332,0-6.665,0-9.998,0
		c0-0.333,0-0.666,0-1C457.573,4.907,470.14,5.81,479.996,4c0.333,0,0.666,0,0.999,0C487.339,3.344,496.312,5.317,500.993,3z"/>
	<path fill-rule="evenodd" fill="#FFF886" d="M879.945,4.999c1.419,0.086,2.832,0.166,3-0.999c1.666,0,3.333,0,4.999,0
		c0,0.666,0,1.333,0,1.999C885.553,5.391,880.69,7.255,879.945,4.999z"/>
	<path fill-rule="evenodd" fill="#FFF886" d="M659.972,16.998c1.667,0,3.334,0,5,0c1.078,1.657,8.921,1.657,9.999,0
		c0.333,0,0.666,0,0.999,0c1.712,2.29,7.633,0.367,10.999,1c12.481,1.184,23.13,4.201,37.995,3c0,0.334,0,0.666,0,1
		c-3.666,0-7.332,0-10.998,0c-5.333,0-10.666,0-15.998,0c-2.667,0-5.333,0-7.999,0c0.184-0.85-0.391-0.943-1-1
		c-10.673-1.666-28.323-1.666-38.995,0c-0.333,0-0.667,0-1,0c-4.024,0.643-10.632-1.301-12.998,1c-2.333,0-4.666,0-7,0
		c-5.999,0-11.998,0-17.997,0c-1.333,0-2.667,0-4,0c-4.688-1.664-16.31-1.664-20.997,0c-0.333,0-0.667,0-1,0
		c-5.999,0-11.998,0-17.998,0c-1.793,0.127-2.108-1.225-3.999-1c0-0.334,0-0.666,0-1c24.197-2.737,54.733,0.395,85.989-2
		C649.857,18.814,657.942,18.35,659.972,16.998z"/>
	<path fill-rule="evenodd" fill="#FFFAA1" d="M131.039,21.998c54.148,1.711,109.313-0.383,159.98-1
		c-4.44,2.559-13.044,0.955-17.998,3c-4,0-7.999,0-11.999,0c-1,0-2,0-3,0c-11.72-1.949-29.329-3.328-41.995-1c-0.333,0-0.667,0-1,0
		c-5.016,0.648-12.643-1.311-15.998,1c-0.333,0-0.667,0-1,0C176.092,22.939,149.755,26.279,131.039,21.998z"/>
	<path fill-rule="evenodd" fill="#FFFAA1" d="M76.046,21.998c20.21,0.305,34.732-0.986,52.993-1c0.333,0,0.667,0,1,0
		c0,0.334,0,0.666,0,1c-4.354,0.645-11.303-1.305-13.999,1c-0.333,0-0.667,0-1,0c-4.354,0.645-11.303-1.305-13.999,1
		c-0.667,0-1.333,0-2,0c-5.345-2.32-14.989-0.344-21.998-1C76.196,23.182,76.102,22.607,76.046,21.998z"/>
	<path fill-rule="evenodd" fill="#FFFAA1" d="M12.054,23.998c7.978-0.021,14.311-1.688,22.997-1c3,0,6,0,8.999,0
		c-1.064,2.27-6.285,0.381-8.999,1c-4.685,0.646-11.973-1.309-14.998,1C17.662,24.389,12.799,26.252,12.054,23.998z"/>
	<path fill-rule="evenodd" fill="#FFFCD0" d="M822.953,22.998c5.68-0.652,13.979,1.314,17.997-1c4.333,0,8.666,0,12.999,0
		c0,0.334,0,0.666,0,1c-11.055-0.391-19.554,1.777-30.996,1C822.953,23.664,822.953,23.33,822.953,22.998z"/>
	<path fill-rule="evenodd" fill="#FFFCD0" d="M116.041,22.998c2.695-2.305,9.644-0.355,13.999-1c0.333,0,0.667,0,1,0
		c18.716,4.281,45.053,0.941,66.992,2C171.697,26.666,141.577,24.459,116.041,22.998z"/>
	<path fill-rule="evenodd" fill="#FFFCD0" d="M216.029,22.998c12.666-2.328,30.274-0.949,41.995,1
		C247.489,24.193,230.653,22.043,216.029,22.998z"/>
	<path fill-rule="evenodd" fill="#FFFAA1" d="M765.96,23.998c-0.851,0.184-0.943-0.391-1-1c8.76-0.762,14.751,1.246,22.997,1
		c0,0.332,0,0.666,0,1c-3,0-5.999,0-8.999,0C776.592,22.697,769.984,24.639,765.96,23.998z"/>
	<path fill-rule="evenodd" fill="#FFF886" d="M102.043,3c2,0,4,0,5.999,0c-1.582,3.561-22.826-0.245-30.996,1
		c-4.292,0.939-8.592,0.325-14.998,0.999c-19.872,3.108-38.772,1.241-61.992,1c0-0.333,0-0.666,0-1
		C18.159,5.772,33.373,3.655,51.049,4c10.576-2.312,19.565-0.274,29.996-2C86.058,4.319,95.366,2.344,102.043,3z"/>
	<path fill-rule="evenodd" fill="#FFF886" d="M676.97,3c3.687,2.313,11.65,0.349,16.998,1c-0.909,1.756-3.504,1.829-4.999,2.999
		c-10.473-1.532-27.559-1.763-37.995,0c-37.516,2.322-105.237-1.138-153.981,0c12.669-2.329,29.661-0.336,43.995-1
		c8.332,0,16.664,0,24.997,0C602.511,4.378,633.79,4.054,673.971,3C674.971,3,675.97,3,676.97,3z"/>
	<path fill-rule="evenodd" fill="#FFF886" d="M166.035,4c-2.501,3.85-15.87,2.104-19.998,0.999C153.731,5.694,159.036,4,166.035,4z"
		/>
	<path fill-rule="evenodd" fill="#FFF884" d="M302.018,4c2.88,0.119,6.545-0.547,7.999,0.999c1,0,2,0,3,0
		c8.672,2.327,21.659,0.338,31.996,1c3.025,2.308,10.313,0.353,14.998,1c11.813-0.186,24.64,0.643,34.995-1c1.334,0,2.667,0,4,0
		c15.936,2.473,30.865,1.059,47.994,1c3.333,0,6.666,0,9.998,0c4,0,8,0,11.999,0c3.333,0,6.666,0,9.999,0c4.332,0,8.665,0,12.998,0
		c1.666,0,3.333,0,4.999,0c48.744-1.138,116.466,2.322,153.981,0c0,0.334,0,0.667,0,1c11.211-1.461,26.32-0.013,37.995-1
		c1.495-1.17,4.09-1.243,4.999-2.999c11.665,0,23.33,0,34.996,0c5.999,0,11.998,0,17.997,0c7.756,0.921,19.814,2.835,26.997,0.999
		c0.667,0,1.333,0,2,0c12.665,0,25.33,0,37.995,0c11.329,3.17,24.813,0.157,38.995,1c0.613-0.292,3.849-2.487,3.999,0
		c6.931,2.912,16.681,0.031,22.997-1c0.745,2.256,5.608,0.392,7.999,1c0,6,0,11.999,0,17.999c-3.424,2.184-9.417-0.168-12.998-1
		c-5.013-2.32-14.321-0.344-20.997-1c-4.333,0-8.666,0-12.999,0c-7.341,0.658-17.319-1.322-22.997,1c1.667,0,3.333,0,5,0
		c0,0.332,0,0.666,0,1c-0.667,0-1.334,0-2,0c-3,0-5.999,0-8.999,0c-18.378-2.061-39.73-6.365-58.992-2c-1,0-2,0-3,0
		c-0.744-2.256-5.608-0.391-7.999-1c-3.035-1.662-12.963-1.662-15.998,0c-0.333,0-0.667,0-1,0c-14.865,1.201-25.514-1.816-37.995-3
		c-1.711-2.288-7.632-0.367-10.999-1c-0.333,0-0.666,0-0.999,0c-3.333,0-6.666,0-9.999,0c-1.666,0-3.333,0-5,0
		c-4.099-0.1-8.195-0.195-10.998,1c-31.256,2.395-61.792-0.737-85.989,2c-6.333,0-12.665,0-18.998,0
		c-7.948-1.51-21.267-4.022-29.996-3c-2.285,0.268-4.567-0.307-4.999,3c-3,0-5.999,0-8.999,0c-11.914-1.908-29.984-1.326-41.995,0
		c-0.168,2.168,3.547,0.453,5,1c-0.31,1.357-2.504,0.83-4,1c-3.333,0-6.666,0-9.998,0c-48.081-3.814-92.253-1.551-140.983-1
		c-0.667,0-1.333,0-2,0c-58.564-3.518-120.646-0.369-175.978,0c-0.333,0-0.667,0-1,0c-25.001-2.336-54.728-0.736-78.99,1
		c0,0.334,0,0.666,0,1c-2,0-4,0-5.999,0c-3,0-6,0-8.999,0c-10.521-2.145-25.016-0.314-34.996-3c0-4.667,0-9.333,0-13.999
		c23.22,0.241,42.12,2.108,61.992-1C66.819,6.179,74.047,7.173,77.046,4c8.17-1.245,29.414,2.561,30.996-1c6,0,11.999,0,17.998,0
		c1.333,0,2.666,0,4,0c1.711,2.288,7.632,0.366,10.999,1c0.667,0,1.333,0,2,0c0.162,1.171,1.823,0.843,3,0.999
		C150.165,6.104,163.533,7.85,166.035,4c3.333,0,6.666,0,9.999,0s6.666,0,9.999,0c0.186,1.48,2.417,0.916,4,0.999
		c47.887,0.368,68.025,6.658,104.987,1c1.453-0.547,5.168,1.169,5-1C301.18,5.162,301.797,4.778,302.018,4z"/>
	<path fill-rule="evenodd" fill="#FFF886" d="M765.96,4c0.744,2.255,5.608,0.391,7.999,0.999C766.776,6.835,754.718,4.921,746.962,4
		c5.666,0,11.332,0,16.998,0C764.627,4,765.293,4,765.96,4z"/>
	<path fill-rule="evenodd" fill="#FFF886" d="M267.022,4.999c7.34,2.325,18.992,0.34,27.996,1c-36.962,5.658-57.1-0.632-104.987-1
		c4.026-2.973,14.972,0.975,18.998-1.999c2.667,0,5.333,0,7.999,0c1.078,1.654,8.921,1.654,9.999,0c1.333,0,2.667,0,4,0
		c0,0.333,0,0.666,0,1c2.364,0.692,8.944,2.311,10.999,0c3,0,5.999,0,8.999,0c1.4,1.656,9.598,1.656,10.999,0
		C264.849,3.174,264.613,5.409,267.022,4.999z"/>
	<path fill-rule="evenodd" fill="#FFF885" d="M349.012,5.999c3.666,0,7.333,0,10.999,0c0,0.334,0,0.667,0,1
		c-4.685-0.647-11.973,1.308-14.998-1C346.345,5.999,347.678,5.999,349.012,5.999z"/>
	<path fill-rule="evenodd" fill="#FFF886" d="M395.006,5.999c-10.355,1.643-23.182,0.814-34.995,1c0-0.333,0-0.666,0-1
		c11.851,0.186,21.584-1.746,33.996-1c0.333,0,0.666,0,0.999,0C395.006,5.333,395.006,5.666,395.006,5.999z"/>
	<path fill-rule="evenodd" fill="#FFF886" d="M852.949,5.999c-14.182-0.843-27.666,2.17-38.995-1
		c2.391-0.608,7.254,1.256,7.999-0.999c0.333,0,0.666,0,1,0C830.63,6.988,845.272,3.011,852.949,5.999z"/>
	<path fill-rule="evenodd" fill="#FFF885" d="M856.948,5.999c5.39-0.943,14.781,2.116,16.998-1.999c1.163,0.162,1.779-0.221,2-1
		c3.155-0.489,3.53,1.802,6.999,1c-0.168,1.165-1.581,1.085-3,0.999C873.629,6.03,863.879,8.911,856.948,5.999z"/>
	<path fill-rule="evenodd" fill="#FFF886" d="M313.016,4.999c11.669,0.663,25.992-1.328,35.996,1c-1.333,0-2.667,0-4,0
		C334.676,5.337,321.688,7.326,313.016,4.999z"/>
	<path fill-rule="evenodd" fill="#FFF886" d="M399.006,5.999c15.665,0,31.329,0,46.994,0c0.333,0,0.666,0,1,0c0,0.334,0,0.667,0,1
		C429.871,7.058,414.941,8.472,399.006,5.999z"/>
	<path fill-rule="evenodd" fill="#FFF886" d="M508.992,19.998c0.432-3.307,2.714-2.733,4.999-3c8.729-1.021,22.048,1.491,29.996,3
		c0,0.334,0,0.666,0,1c-3.058-0.725-2.94,1.725-5.999,1c-0.431-2.236-4.928-0.404-6.999-1C525.644,18.678,516,20.656,508.992,19.998
		z"/>
	<path fill-rule="evenodd" fill="#FFF886" d="M130.039,20.998c55.332-0.369,117.414-3.518,175.978,0c-3,0-6,0-8.999,0
		c-2,0-4,0-5.999,0c-50.668,0.617-105.833,2.711-159.98,1c-0.333,0-0.667,0-1,0C130.039,21.664,130.039,21.332,130.039,20.998z"/>
	<path fill-rule="evenodd" fill="#FFF886" d="M308.017,20.998c48.73-0.551,92.902-2.814,140.983,1c-0.667,0-1.334,0-2,0
		c-9.977,2.367-20.987-0.865-29.996,1c-6.333,0-12.665,0-18.998,0c-4.688-1.664-16.31-1.664-20.997,0c-1.163-0.162-1.779,0.221-2,1
		c-2.091-0.576-2.854-2.479-5.999-2c-3.333,0-6.666,0-9.999,0c-3.039,0.627-8.612-1.279-9.999,1c-2,0-4,0-6,0
		c-7.666,0-15.332,0-22.997,0c-3.666,0-7.333,0-10.999,0c0.184-0.852-0.39-0.943-1-1C308.017,21.664,308.017,21.332,308.017,20.998z
		"/>
	<path fill-rule="evenodd" fill="#FFF886" d="M462.998,20.998c-1.453-0.547-5.168,1.168-5-1c12.011-1.326,30.081-1.908,41.995,0
		c-4.354,0.645-11.303-1.305-13.998,1c-1.333,0-2.667,0-4,0c-4.333,0-8.665,0-12.998,0
		C466.997,20.998,464.998,20.998,462.998,20.998z"/>
	<path fill-rule="evenodd" fill="#FFF886" d="M0.055,19.998c9.979,2.686,24.475,0.855,34.996,3c-8.687-0.688-15.02,0.979-22.997,1
		c-4.35,0.016-8.997,0.33-11.999-1C0.055,21.998,0.055,20.998,0.055,19.998z"/>
	<path fill-rule="evenodd" fill="#FFF886" d="M725.965,20.998c3.035-1.662,12.963-1.662,15.998,0
		C736.63,20.998,731.298,20.998,725.965,20.998z"/>
	<path fill-rule="evenodd" fill="#FFF886" d="M50.049,21.998c24.263-1.736,53.989-3.336,78.99-1
		c-18.261,0.014-32.783,1.305-52.993,1c-3,0-6,0-8.999,0C61.381,21.998,55.715,21.998,50.049,21.998z"/>
	<path fill-rule="evenodd" fill="#FFF886" d="M752.962,21.998c19.262-4.365,40.614-0.061,58.992,2c-7.999,0-15.998,0-23.997,0
		c-8.246,0.246-14.237-1.762-22.997-1C760.582,21.475,756.961,24.564,752.962,21.998z"/>
	<path fill-rule="evenodd" fill="#FFF886" d="M822.953,22.998c-1.667,0-3.333,0-5,0c5.678-2.322,15.656-0.342,22.997-1
		C836.932,24.313,828.633,22.346,822.953,22.998z"/>
	<path fill-rule="evenodd" fill="#FFFAA1" d="M853.949,21.998c6.676,0.656,15.984-1.32,20.997,1c-6.708,2.338-12.83-0.879-20.997,0
		C853.949,22.664,853.949,22.332,853.949,21.998z"/>
</g>
</svg>
